<?xml version="1.0" standalone="no"?>
<!DOCTYPE svg PUBLIC "-//W3C//DTD SVG 20010904//EN"
 "http://www.w3.org/TR/2001/REC-SVG-20010904/DTD/svg10.dtd">
<svg version="1.0" xmlns="http://www.w3.org/2000/svg"
 width="300.000000pt" height="154.000000pt" viewBox="0 0 300.000000 154.000000"
 preserveAspectRatio="xMidYMid meet">
<metadata>
Created by potrace 1.10, written by Peter Selinger 2001-2011
</metadata>
<g transform="translate(0.000000,154.000000) scale(0.100000,-0.100000)"
fill="#000000" stroke="none">
<path d="M1750 1274 c-58 -13 -129 -30 -158 -37 l-52 -12 -3 -428 -2 -428 22
6 c23 5 306 65 310 65 2 0 3 194 3 430 0 237 -3 429 -7 429 -5 -1 -55 -12
-113 -25z m80 -413 c0 -355 -1 -389 -17 -395 -30 -12 -192 -46 -218 -46 l-25
0 0 384 c0 295 3 386 13 393 6 6 28 13 47 17 19 3 62 12 95 20 33 8 70 14 83
15 l22 1 0 -389z"/>
<path d="M1938 873 c1 -235 5 -429 7 -431 2 -3 66 -17 142 -33 76 -16 148 -31
160 -35 l22 -6 0 429 0 430 -157 33 c-86 18 -161 34 -167 36 -7 3 -9 -140 -7
-423z m140 361 c42 -8 94 -20 115 -25 l37 -10 0 -389 c0 -305 -3 -390 -12
-390 -19 0 -211 38 -231 46 -16 6 -17 38 -17 395 0 344 2 389 15 389 9 0 51
-7 93 -16z"/>
<path d="M2649 1296 c-2 -2 -71 -18 -153 -35 -83 -17 -151 -33 -153 -34 -1 -2
-4 -195 -5 -430 l-3 -428 22 6 c23 5 306 65 310 65 2 0 3 194 3 430 0 379 -3
443 -21 426z m-21 -438 l-3 -393 -74 -17 c-41 -9 -98 -20 -128 -24 l-53 -6 0
385 c0 296 3 388 12 393 16 10 195 52 226 53 l22 1 -2 -392z"/>
<path d="M260 1208 c0 -6 -30 -114 -66 -238 -61 -207 -69 -228 -93 -238 -23
-9 -19 -10 32 -11 37 -1 56 3 52 9 -3 6 -13 10 -21 10 -17 0 -17 0 2 66 l15
54 74 0 73 0 11 -44 c6 -24 14 -51 17 -60 5 -12 0 -19 -15 -23 -41 -11 -20
-18 50 -16 75 1 95 7 56 17 -21 5 -30 27 -87 213 -34 115 -67 223 -72 241 -9
31 -28 45 -28 20z m0 -122 c0 -13 41 -151 57 -193 4 -10 -10 -13 -62 -13 -65
0 -67 1 -61 23 4 12 17 61 29 109 20 79 37 113 37 74z"/>
<path d="M1183 1148 l-1 -63 20 24 c10 14 22 37 25 52 5 27 8 28 79 31 41 2
74 0 74 -4 0 -4 -49 -111 -109 -238 l-109 -230 146 0 147 0 0 55 c0 30 -3 55
-7 55 -9 0 -29 -36 -37 -68 -7 -24 -10 -25 -89 -25 -45 0 -81 4 -81 9 1 5 17
43 36 84 19 41 48 102 63 136 16 33 48 102 73 152 l45 92 -137 0 -136 0 -2
-62z"/>
<path d="M470 1039 c0 -4 9 -9 20 -12 19 -5 20 -14 20 -230 0 -222 0 -224 -22
-235 -19 -9 -10 -11 50 -11 46 -1 71 3 67 9 -3 6 -13 10 -21 10 -11 0 -14 18
-14 87 0 83 1 85 18 70 10 -10 34 -17 54 -17 124 0 175 219 72 309 -43 38 -93
42 -124 9 -16 -17 -20 -18 -20 -6 0 12 -12 17 -50 20 -28 1 -50 0 -50 -3z
m217 -43 c22 -42 28 -151 11 -200 -7 -22 -25 -48 -39 -58 -25 -19 -28 -19 -58
-4 l-31 17 0 118 0 119 30 25 c37 31 65 26 87 -17z"/>
<path d="M820 1038 c0 -5 9 -8 20 -8 19 0 20 -7 20 -228 0 -228 0 -229 -22
-240 -19 -9 -10 -11 50 -11 46 -1 71 3 67 9 -3 6 -13 10 -21 10 -11 0 -14 15
-14 63 0 34 -3 73 -7 86 -6 24 -6 24 18 8 13 -9 40 -17 60 -17 125 0 176 219
72 310 -41 36 -93 40 -123 10 -23 -23 -31 -25 -24 -6 4 11 -7 15 -45 17 -28 2
-51 1 -51 -3z m217 -42 c22 -42 28 -151 11 -200 -7 -22 -25 -48 -39 -58 -25
-19 -28 -19 -58 -4 l-31 17 0 118 0 119 30 25 c37 31 65 26 87 -17z"/>
<path d="M100 400 c0 -27 3 -32 11 -20 8 11 12 12 16 3 9 -24 23 -13 23 17 0
30 -14 41 -23 18 -4 -10 -8 -9 -16 2 -8 12 -11 7 -11 -20z"/>
<path d="M170 400 c0 -25 4 -30 23 -29 19 1 19 2 3 6 -15 4 -16 7 -5 14 12 8
12 10 0 18 -11 7 -10 10 5 14 16 4 16 5 -3 6 -19 1 -23 -4 -23 -29z"/>
<path d="M237 414 c-4 -10 -9 -24 -12 -30 -4 -8 3 -11 20 -10 28 1 32 13 12
41 -13 17 -14 17 -20 -1z"/>
<path d="M291 403 c-1 -28 2 -33 22 -33 20 1 20 2 6 13 -9 7 -19 21 -22 32 -3
13 -5 9 -6 -12z"/>
<path d="M338 418 c7 -7 12 -20 12 -30 0 -10 5 -18 11 -18 6 0 8 7 5 16 -4 9
-1 23 5 30 9 11 6 14 -17 14 -22 0 -25 -3 -16 -12z"/>
<path d="M390 400 c0 -30 14 -41 23 -17 4 9 8 8 16 -3 8 -12 11 -7 11 20 0 27
-3 32 -11 20 -8 -11 -12 -12 -16 -2 -9 23 -23 12 -23 -18z"/>
<path d="M464 415 c-9 -23 3 -45 26 -45 12 0 18 5 15 10 -3 6 -13 10 -21 10
-9 0 -14 6 -11 13 2 6 9 12 15 12 5 0 14 3 18 8 4 4 -3 7 -15 7 -12 0 -24 -7
-27 -15z"/>
<path d="M530 406 c-5 -15 -10 -28 -10 -29 0 -1 11 -3 25 -3 22 -2 25 1 19 20
-11 36 -23 41 -34 12z"/>
<path d="M589 428 c-10 -47 0 -80 14 -45 4 10 6 10 6 0 2 -26 17 -12 15 15 0
17 -7 28 -17 30 -10 2 -17 2 -18 0z"/>
<path d="M647 423 c-4 -3 -7 -17 -7 -30 0 -19 5 -23 28 -22 19 1 21 3 8 6 -15
4 -16 7 -5 14 12 8 12 10 0 18 -11 7 -10 10 5 14 17 4 17 5 -2 6 -11 0 -24 -2
-27 -6z"/>
<path d="M739 429 c-6 -42 -6 -59 2 -59 5 0 9 5 9 10 0 7 6 7 19 0 28 -14 31
-13 31 15 0 26 -15 34 -24 13 -3 -9 -9 -7 -20 6 -9 11 -16 18 -17 15z"/>
<path d="M820 400 c0 -25 4 -30 23 -29 19 1 19 2 3 6 -15 4 -16 7 -5 14 12 8
12 10 0 18 -11 7 -10 10 5 14 16 4 16 5 -3 6 -19 1 -23 -4 -23 -29z"/>
<path d="M879 425 c-8 -35 -1 -50 21 -52 18 -1 19 0 6 4 -15 4 -16 7 -5 14 12
8 12 10 0 18 -11 7 -10 10 5 14 16 4 16 5 -3 6 -13 0 -23 -1 -24 -4z"/>
<path d="M938 400 c2 -16 8 -30 12 -30 4 0 10 14 12 30 4 23 1 30 -12 30 -13
0 -16 -7 -12 -30z"/>
<path d="M990 416 c0 -8 5 -18 11 -22 8 -4 7 -9 -2 -15 -11 -7 -10 -9 3 -9 22
0 34 20 18 30 -7 4 -9 13 -6 19 4 6 0 11 -8 11 -9 0 -16 -6 -16 -14z"/>
<path d="M1070 400 c0 -34 5 -37 26 -16 10 10 11 17 3 22 -8 4 -7 9 2 15 10 6
8 9 -8 9 -19 0 -23 -6 -23 -30z"/>
<path d="M1160 402 c0 -18 5 -32 10 -32 6 0 10 5 10 12 0 9 3 9 12 0 19 -19
28 -14 28 18 0 17 -4 30 -10 30 -5 0 -10 -7 -10 -17 0 -14 -2 -14 -20 2 -20
18 -20 17 -20 -13z"/>
<path d="M1238 400 c2 -16 8 -30 12 -30 4 0 10 14 12 30 4 23 1 30 -12 30 -13
0 -16 -7 -12 -30z"/>
<path d="M1290 400 c0 -25 4 -30 23 -29 12 0 17 3 10 5 -7 3 -9 12 -6 20 3 8
-1 14 -8 15 -8 0 -5 4 6 9 19 8 19 9 -2 9 -19 1 -23 -4 -23 -29z"/>
<path d="M1346 415 c-8 -23 4 -45 25 -45 10 0 19 5 19 10 0 6 -7 10 -15 10
-20 0 -19 17 3 29 15 9 15 10 -4 11 -12 0 -24 -7 -28 -15z"/>
<path d="M1410 400 c0 -27 3 -32 11 -20 8 11 12 12 16 3 9 -24 23 -13 23 17 0
30 -14 41 -23 18 -4 -10 -8 -9 -16 2 -8 12 -11 7 -11 -20z"/>
</g>
</svg>
